HIERARCHY
ROOT Hips
{
	OFFSET 0.000000 0.000000 0.000000
	CHANNELS 6 Xposition Yposition Zposition Xrotation Yrotation Zrotation
	JOINT LeftUpLeg_virtual
	{
		OFFSET 0.000000 0.000000 0.000000
		CHANNELS 3 Xrotation Yrotation Zrotation
		JOINT LeftUpLeg
		{
			OFFSET 10.205400 -3.823500 0.155100
			CHANNELS 3 Xrotation Yrotation Zrotation
			JOINT LeftLeg
			{
				OFFSET 0.708757 -12.982077 0.567790
				CHANNELS 3 Xrotation Yrotation Zrotation
				JOINT LeftFoot
				{
					OFFSET -0.708756 -10.717838 -2.184338
					CHANNELS 3 Xrotation Yrotation Zrotation
					JOINT LeftToeBase
					{
						OFFSET 0.108149 -7.191104 7.560241
						CHANNELS 3 Xrotation Yrotation Zrotation
						JOINT LeftToe_End
						{
							OFFSET 0.070230 0.081724 4.490308
							CHANNELS 3 Xrotation Yrotation Zrotation
							End Site
							{
								OFFSET 0 0 0
							}
						}
					}
				}
			}
		}
	}
	JOINT RightUpLeg_virtual
	{
		OFFSET 0.000000 0.000000 0.000000
		CHANNELS 3 Xrotation Yrotation Zrotation
		JOINT RightUpLeg
		{
			OFFSET -10.205400 -3.823500 0.005500
			CHANNELS 3 Xrotation Yrotation Zrotation
			JOINT RightLeg
			{
				OFFSET -0.708756 -12.982134 0.610632
				CHANNELS 3 Xrotation Yrotation Zrotation
				JOINT RightFoot
				{
					OFFSET 0.708754 -10.717769 -1.945823
					CHANNELS 3 Xrotation Yrotation Zrotation
					JOINT RightToeBase
					{
						OFFSET -0.108140 -7.191069 7.372968
						CHANNELS 3 Xrotation Yrotation Zrotation
						JOINT RightToe_End
						{
							OFFSET -0.070227 0.081735 4.479403
							CHANNELS 3 Xrotation Yrotation Zrotation
							End Site
							{
								OFFSET 0 0 0
							}
						}
					}
				}
			}
		}
	}
	JOINT Spine_virtual
	{
		OFFSET 0.000000 0.000000 0.000000
		CHANNELS 3 Xrotation Yrotation Zrotation
		JOINT Spine
		{
			OFFSET 0.000000 6.876099 0.125700
			CHANNELS 3 Xrotation Yrotation Zrotation
			JOINT Spine1
			{
				OFFSET 0.000000 5.730043 0.104720
				CHANNELS 3 Xrotation Yrotation Zrotation
				JOINT Spine1_split
				{
					OFFSET 0.000000 5.730043 0.104720
					CHANNELS 3 Xrotation Yrotation Zrotation
					JOINT Spine2
					{
						OFFSET 0.000000 5.730043 0.104720
						CHANNELS 3 Xrotation Yrotation Zrotation
						JOINT Neck_virtual
						{
							OFFSET 0.000000 0.000000 0.000000
							CHANNELS 3 Xrotation Yrotation Zrotation
							JOINT Neck
							{
								OFFSET 0.000000 10.314075 0.188496
								CHANNELS 3 Xrotation Yrotation Zrotation
								JOINT Head
								{
									OFFSET 0.000000 7.643700 -2.377400
									CHANNELS 3 Xrotation Yrotation Zrotation
									JOINT HeadTop_End
									{
										OFFSET 0.000000 43.788605 -13.619600
										CHANNELS 3 Xrotation Yrotation Zrotation
										End Site
										{
											OFFSET 0 0 0
										}
									}
								}
							}
						}
						JOINT LeftShoulder_virtual
						{
							OFFSET 0.000000 0.000000 0.000000
							CHANNELS 3 Xrotation Yrotation Zrotation
							JOINT LeftShoulder
							{
								OFFSET 2.196100 4.412489 0.087492
								CHANNELS 3 Xrotation Yrotation Zrotation
								JOINT LeftShoulder_split
								{
									OFFSET 2.196100 4.412489 0.087492
									CHANNELS 3 Xrotation Yrotation Zrotation
									JOINT LeftArm
									{
										OFFSET 8.771219 -2.981674 -0.026999
										CHANNELS 3 Xrotation Yrotation Zrotation
										JOINT LeftForeArm
										{
											OFFSET 8.512804 0.000000 -0.000000
											CHANNELS 3 Xrotation Yrotation Zrotation
											JOINT LeftHand
											{
												OFFSET 18.484802 0.000000 -0.000000
												CHANNELS 3 Xrotation Yrotation Zrotation
												End Site
												{
													OFFSET 0 0 0
												}
											}
										}
									}
								}
							}
						}
						JOINT RightShoulder_virtual
						{
							OFFSET 0.000000 0.000000 0.000000
							CHANNELS 3 Xrotation Yrotation Zrotation
							JOINT RightShoulder
							{
								OFFSET -2.196100 4.412496 0.070690
								CHANNELS 3 Xrotation Yrotation Zrotation
								JOINT RightShoulder_split
								{
									OFFSET -2.196100 4.412496 0.070690
									CHANNELS 3 Xrotation Yrotation Zrotation
									JOINT RightArm
									{
										OFFSET -8.771282 -2.981682 -0.094208
										CHANNELS 3 Xrotation Yrotation Zrotation
										JOINT RightForeArm
										{
											OFFSET -8.494598 0.000000 0.000000
											CHANNELS 3 Xrotation Yrotation Zrotation
											JOINT RightHand
											{
												OFFSET -18.483803 0.000000 0.000001
												CHANNELS 3 Xrotation Yrotation Zrotation
												End Site
												{
													OFFSET 0 0 0
												}
											}
										}
									}
								}
							}
						}
					}
				}
			}
		}
	}
}
MOTION
Frames: 10
Frame Time: 0.03333333
32.886932 25.465200 72.925453 0.000000 0.000000 0.000000 115.328782 71.474815 -94.653718 -59.155859 -26.152436 34.492759 95.729206 -10.954932 -42.400288 -24.598265 -0.815863 22.242151 -70.778949 -26.828256 12.478401 0.000000 0.000000 0.000000 169.964422 71.570561 -158.915894 -78.854582 -3.150981 -55.046103 92.744448 14.268643 -24.023601 -29.626495 -36.176015 62.910680 -27.962801 9.668523 -27.470983 0.000000 0.000000 0.000000 105.260223 68.465365 -85.835711 34.646336 14.073895 22.411999 6.701676 13.157636 2.433958 -0.104655 6.400318 -0.721111 0.000000 0.000000 0.000000 15.663751 14.596138 0.294629 -15.468160 47.054584 55.756450 -172.708942 2.913991 -150.646461 0.000000 0.000000 0.000000 29.084947 10.755600 0.718619 8.312814 -6.223926 11.858108 -24.199792 -3.420601 -0.875043 -27.964633 -73.802503 -17.488139 14.355475 27.634180 4.030737 0.000000 0.000000 0.000000 30.895818 10.744602 -13.622492 -7.409326 -3.109695 -8.501931 -20.933635 -26.262767 15.383389 -62.849174 13.882359 7.233668 22.293816 31.631146 14.153719 0.000000 0.000000 0.000000 
36.140823 23.782326 77.211502 0.000000 0.000000 0.000000 -157.867105 62.443905 -162.525731 -73.441677 -24.525085 26.364269 88.389376 -10.073743 -39.746643 -14.794647 5.130915 20.016465 -61.855819 -25.953102 14.260784 0.000000 0.000000 0.000000 -155.390492 45.625073 176.736964 -85.924155 -3.305637 -47.856024 89.254030 12.361776 -22.212035 -29.920374 -32.411331 64.293862 -26.874296 8.334672 -33.249634 0.000000 0.000000 0.000000 -163.381977 75.378056 -166.996827 32.469493 13.413701 20.584539 5.028738 14.981820 3.218086 0.539807 7.232772 -0.969439 0.000000 0.000000 0.000000 13.344033 16.768705 0.041074 -13.747906 41.164392 54.174496 -171.660727 11.234875 -162.323721 0.000000 0.000000 0.000000 29.195189 12.863932 1.493342 8.889187 -8.704753 13.534941 -24.469177 1.069408 -3.273742 -31.985530 -69.068580 -18.244672 7.184231 19.370012 5.477033 0.000000 0.000000 0.000000 33.035074 12.603741 -14.560987 -6.395358 4.277939 -6.217639 -19.946799 -21.475370 20.616158 -57.663886 8.065642 2.210301 28.292373 48.470250 7.712944 0.000000 0.000000 0.000000 
39.579018 22.157864 82.231186 0.000000 0.000000 0.000000 -131.965498 46.900477 -179.647308 -91.802961 -23.986709 19.128479 84.651165 -15.784656 -31.665501 7.058488 7.648664 11.778602 -54.127408 -22.172765 11.644798 0.000000 0.000000 0.000000 -142.784271 31.885471 173.213953 -94.456168 -1.381717 -39.901798 79.117476 10.314785 -18.196240 -24.851141 -24.633301 65.978651 -22.637550 5.517927 -37.695367 0.000000 0.000000 0.000000 -124.767380 59.259473 161.138096 30.480293 11.339218 19.336158 3.172727 14.925486 3.359028 0.787186 6.426891 -1.197412 0.000000 0.000000 0.000000 10.292561 17.559417 0.204208 -13.571132 36.818128 54.457126 -164.525679 14.465297 -174.437758 0.000000 0.000000 0.000000 29.306443 13.105564 1.780530 9.266080 -9.097939 13.330149 -25.833343 5.986225 -5.423024 -33.487045 -60.997947 -16.214575 3.121660 6.503939 6.744984 0.000000 0.000000 0.000000 33.232842 13.040349 -15.154325 -4.157988 14.484000 -4.493568 -18.368305 -19.270641 25.505226 -53.543728 1.403233 -2.904451 34.609211 63.905408 0.981634 0.000000 0.000000 0.000000 
43.198921 20.347778 87.124825 0.000000 0.000000 0.000000 -121.984597 37.798380 171.167778 -108.045738 -23.906454 13.034854 87.066320 -26.915887 -18.328066 32.094711 2.820282 2.384664 -43.570299 -16.944576 5.933392 0.000000 0.000000 0.000000 -132.450742 26.868216 169.306852 -102.847069 1.724438 -31.363976 65.413999 6.336439 -12.418774 -17.587396 -14.530734 64.348004 -15.818054 1.586138 -41.075252 0.000000 0.000000 0.000000 -116.415124 45.124604 156.558673 29.535934 7.972768 18.776646 1.136052 13.066112 2.849826 0.535701 4.484251 -1.056954 0.000000 0.000000 0.000000 6.450251 16.898663 0.392637 -14.753033 34.836919 55.915006 -152.878977 11.808707 173.053812 0.000000 0.000000 0.000000 29.546534 11.575904 1.385291 9.323457 -7.259229 10.468071 -28.410430 9.928295 -6.394520 -31.712879 -52.449873 -13.098414 3.948993 -9.169068 8.771359 0.000000 0.000000 0.000000 31.440344 12.019677 -15.415132 -1.044816 25.269031 -3.512454 -13.258011 -21.172316 28.799431 -51.369689 -4.384685 -7.339344 42.776706 77.343273 -7.713124 0.000000 0.000000 0.000000 
46.536354 18.107464 91.944725 0.000000 0.000000 0.000000 -117.445171 32.176857 163.838930 -117.312611 -23.202021 8.162113 94.758097 -35.777911 -2.434949 47.729485 -4.682761 -3.033928 -31.098299 -11.305173 -3.640227 0.000000 0.000000 0.000000 -122.898339 27.071076 163.394504 -111.325383 5.495124 -21.684823 55.734914 0.020714 -5.672122 -10.246688 -4.759102 57.849626 -10.039498 -1.467969 -44.337435 0.000000 0.000000 0.000000 -114.670571 36.162788 155.838580 29.920726 3.909773 18.946562 -1.087805 9.978709 1.839551 -0.120685 2.809866 -0.659523 0.000000 0.000000 0.000000 2.140659 14.835912 0.267972 -16.985442 34.315055 57.968505 -138.421679 2.400645 162.320757 0.000000 0.000000 0.000000 29.143744 8.804597 0.563556 9.283643 -4.137955 4.742478 -30.754146 11.746858 -6.626781 -26.857783 -47.104106 -10.794588 9.816214 -22.303293 12.455889 0.000000 0.000000 0.000000 28.469296 9.937168 -15.427504 2.434049 34.688649 -3.361674 -4.537941 -24.341742 28.970678 -50.402435 -8.129523 -10.095851 91.577455 87.081135 -57.320382 0.000000 0.000000 0.000000 
49.667343 15.935431 96.896584 0.000000 0.000000 0.000000 -114.809702 29.396297 157.186436 -116.552862 -21.390028 6.076790 102.293694 -38.248813 11.957867 50.273331 -9.354148 -6.896230 -25.221194 -6.574594 -14.118740 0.000000 0.000000 0.000000 -113.176706 28.942124 155.416419 -119.954979 9.227781 -11.117672 57.900757 -6.462782 2.105705 -3.199572 3.187661 47.402326 -7.919841 -2.379494 -48.217061 0.000000 0.000000 0.000000 -113.949234 30.731914 155.427184 31.276054 -0.170409 19.341634 -3.482913 6.570762 0.689175 -0.434277 2.111274 -0.194671 0.000000 0.000000 0.000000 -2.219347 11.841171 -0.459382 -19.880294 33.437891 60.232809 -122.828070 -12.878938 156.641892 0.000000 0.000000 0.000000 27.813942 5.666527 -0.264486 9.393288 -0.575139 -2.947352 -32.723406 11.071320 -6.942486 -16.129012 -45.976151 -7.298079 17.983559 -30.261997 16.477925 0.000000 0.000000 0.000000 25.242009 7.383279 -15.219096 6.048481 41.464299 -3.926501 3.321863 -24.737248 24.630738 -50.105127 -9.426261 -10.529460 -174.037113 83.805082 -152.556810 0.000000 0.000000 0.000000 
52.631767 14.369119 101.635574 0.000000 0.000000 0.000000 -112.715006 28.480101 152.041514 -106.111169 -17.987039 8.360347 104.396709 -36.515298 21.039255 43.562451 -10.048789 -12.355548 -30.118375 -1.558339 -20.896682 0.000000 0.000000 0.000000 -105.184831 28.538002 147.146071 -128.190179 12.681914 -0.876563 74.849106 -7.374753 10.884010 3.407425 9.007520 34.537528 -10.289730 -0.507512 -52.205844 0.000000 0.000000 0.000000 -113.414519 26.973932 155.472809 32.808503 -3.574432 19.495824 -6.047187 3.581773 -0.304010 -0.287532 2.658342 0.178020 0.000000 0.000000 0.000000 -5.718415 8.699134 -1.777937 -22.732905 30.853389 62.067671 -106.395564 -30.019733 158.395789 0.000000 0.000000 0.000000 25.341441 2.911317 -0.558574 9.478746 2.233704 -10.816421 -32.326404 8.087142 -6.998357 0.576640 -46.460644 -0.311093 23.919939 -34.585435 17.920598 0.000000 0.000000 0.000000 22.055622 4.757687 -14.604821 9.628257 44.402117 -5.058001 6.862524 -22.604969 15.730337 -49.108678 -8.988578 -8.135239 -174.438974 82.265127 -152.653881 0.000000 0.000000 0.000000 
55.253906 13.820319 105.290749 0.000000 0.000000 0.000000 -111.499006 27.104830 150.269790 -90.071009 -10.975609 15.387535 99.571823 -33.008392 23.165138 34.520606 -6.693828 -17.511242 -42.560702 3.614033 -21.585158 0.000000 0.000000 0.000000 -101.209306 25.588906 142.382383 -134.938419 15.381198 8.276259 96.982840 -1.504514 16.236094 9.343564 12.775141 20.983439 -15.676918 3.507559 -55.041459 0.000000 0.000000 0.000000 -112.090685 25.030338 155.625123 33.416492 -5.956934 18.840532 -8.716097 1.155357 -1.085245 -0.048654 3.616239 0.057611 0.000000 0.000000 0.000000 -7.416633 5.748636 -3.467895 -25.277267 25.876976 63.113639 -88.327651 -43.412293 168.976667 0.000000 0.000000 0.000000 21.643119 0.844675 -0.044709 9.029111 3.731212 -17.009717 -27.808251 4.070191 -7.145635 18.660775 -43.807522 8.560129 25.663174 -40.378576 16.212379 0.000000 0.000000 0.000000 19.130667 2.128243 -13.670879 13.215575 43.544023 -6.954240 5.094799 -18.059196 5.836751 -48.081837 -8.097753 -4.051701 156.179843 84.628742 -123.485367 0.000000 0.000000 0.000000 
57.390472 14.228472 107.891014 0.000000 0.000000 0.000000 -111.381199 24.774971 151.619736 -75.298396 -1.157102 23.371951 89.958714 -28.954651 20.687224 30.032690 -0.964091 -20.618859 -50.301345 6.103344 -18.628071 0.000000 0.000000 0.000000 -100.222323 19.818769 142.500463 -139.467094 17.710575 16.228492 113.910371 4.951217 15.703472 15.225438 14.003990 7.364279 -22.345958 8.141445 -55.675792 0.000000 0.000000 0.000000 -109.075662 24.505073 155.834003 32.495871 -7.065324 16.812304 -11.325687 -1.093446 -1.748751 0.268993 4.420351 -0.300526 0.000000 0.000000 0.000000 -7.275576 3.071541 -5.149063 -27.396980 19.127386 63.020803 -71.638562 -50.082792 -175.074838 0.000000 0.000000 0.000000 17.721139 -0.929334 1.243812 7.872686 3.542846 -19.610504 -22.243220 2.163736 -7.177030 32.768181 -36.013573 14.471356 23.631812 -52.128028 12.500767 0.000000 0.000000 0.000000 15.917587 -0.643281 -12.668527 16.518136 39.505589 -9.277473 0.155017 -12.921492 -0.262304 -48.026902 -8.762128 -0.212902 88.158857 83.623850 -55.481411 0.000000 0.000000 0.000000 
58.703415 15.228573 109.956024 0.000000 0.000000 0.000000 -111.268283 22.064132 154.384309 -65.938797 8.029679 29.769407 74.767636 -25.502352 14.503029 32.997378 4.246061 -22.983363 -43.354841 6.000888 -16.276424 0.000000 0.000000 0.000000 -101.290852 13.087550 145.843035 -141.465867 20.911626 23.726986 122.305192 9.148939 12.682591 20.557999 12.176210 -5.082551 -28.623170 12.134265 -54.114151 0.000000 0.000000 0.000000 -105.090691 24.922428 156.140638 30.315665 -6.817102 13.748873 -13.578054 -3.507809 -2.656749 0.347851 4.875206 -0.680862 0.000000 0.000000 0.000000 -5.720975 0.660126 -6.504439 -29.069121 12.202588 61.960983 -60.996793 -51.446914 -159.549380 0.000000 0.000000 0.000000 14.123111 -2.881295 2.702892 6.034530 1.417391 -18.107127 -16.357509 1.962059 -6.703963 41.885910 -24.749047 15.131680 16.333516 -69.428060 4.935007 0.000000 0.000000 0.000000 12.047912 -3.686388 -12.033333 19.402781 33.129607 -12.398925 -6.619339 -9.229412 -2.012745 -49.532296 -12.494585 0.917428 69.280426 80.062214 -36.925908 0.000000 0.000000 0.000000 
